<svg width="13" height="13" viewBox="0 0 13 13" fill="none" xmlns="http://www.w3.org/2000/svg">
<path d="M6.70022 7.00079L11.8472 1.86079C11.8973 1.81594 11.9378 1.76144 11.9664 1.70057C11.9949 1.63969 12.0109 1.57368 12.0134 1.50649C12.0158 1.4393 12.0047 1.3723 11.9806 1.30951C11.9566 1.24671 11.9201 1.18942 11.8734 1.14104C11.8267 1.09266 11.7708 1.0542 11.7089 1.02795C11.647 1.0017 11.5804 0.988211 11.5132 0.988282C11.4459 0.988352 11.3794 1.00198 11.3176 1.02836C11.2557 1.05473 11.1998 1.09331 11.1532 1.14179L11.1412 1.15379L6.00022 6.30079L0.853215 1.15379C0.758914 1.06271 0.632613 1.01231 0.501515 1.01345C0.370416 1.01459 0.24501 1.06717 0.152306 1.15988C0.0596019 1.25258 0.00701749 1.37799 0.00587828 1.50909C0.00473907 1.64019 0.0551363 1.76649 0.146215 1.86079L5.29022 7.00079L0.146215 12.1478C0.0551363 12.2421 0.00473907 12.3684 0.00587828 12.4995C0.00701749 12.6306 0.0596019 12.756 0.152306 12.8487C0.24501 12.9414 0.370416 12.994 0.501515 12.9951C0.632613 12.9963 0.758914 12.9459 0.853215 12.8548L6.00022 7.71079L11.1442 12.8548C11.2385 12.9459 11.3648 12.9963 11.4959 12.9951C11.627 12.994 11.7524 12.9414 11.8451 12.8487C11.9378 12.756 11.9904 12.6306 11.9916 12.4995C11.9927 12.3684 11.9423 12.2421 11.8512 12.1478L6.70022 7.00079Z" fill="#282F39"/>
</svg>
