<svg width="358" height="151" viewBox="0 0 358 151" fill="none" xmlns="http://www.w3.org/2000/svg">
<path d="M8 33H32C34.1217 33 36.1566 33.8429 37.6569 35.3431C39.1571 36.8434 40 38.8783 40 41V119H0V41C0 38.8783 0.842855 36.8434 2.34315 35.3431C3.84344 33.8429 5.87827 33 8 33V33Z" fill="#F2F5F7"/>
<path d="M14.232 144.805H15.688V136.533L19.384 144.805H20.408L24.088 136.549V144.805H25.544V133.733H23.992L19.896 142.885L15.8 133.733H14.232V144.805Z" fill="#7F7F7F"/>
<path d="M326 19H350C352.122 19 354.157 19.8429 355.657 21.3431C357.157 22.8434 358 24.8783 358 27V119H318V27C318 24.8783 318.843 22.8434 320.343 21.3431C321.843 19.8429 323.878 19 326 19V19Z" fill="#F2F5F7"/>
<path d="M341.48 141.765C341.48 137.637 335.464 139.429 335.464 136.549C335.464 135.349 336.408 134.725 337.608 134.757C338.968 134.773 339.672 135.621 339.768 136.373H341.368C341.192 134.677 339.8 133.509 337.672 133.509C335.464 133.509 333.976 134.757 333.976 136.597C333.976 140.741 340.008 138.821 340.008 141.829C340.008 142.885 339.176 143.685 337.768 143.685C336.216 143.685 335.56 142.757 335.464 141.829H333.912C333.944 143.669 335.528 144.917 337.768 144.917C340.184 144.917 341.48 143.349 341.48 141.765Z" fill="#7F7F7F"/>
<path d="M273 61H297C299.122 61 301.157 61.8429 302.657 63.3431C304.157 64.8434 305 66.8783 305 69V119H265V69C265 66.8783 265.843 64.8434 267.343 63.3431C268.843 61.8429 270.878 61 273 61V61Z" fill="#F2F5F7"/>
<path d="M288.48 141.765C288.48 137.637 282.464 139.429 282.464 136.549C282.464 135.349 283.408 134.725 284.608 134.757C285.968 134.773 286.672 135.621 286.768 136.373H288.368C288.192 134.677 286.8 133.509 284.672 133.509C282.464 133.509 280.976 134.757 280.976 136.597C280.976 140.741 287.008 138.821 287.008 141.829C287.008 142.885 286.176 143.685 284.768 143.685C283.216 143.685 282.56 142.757 282.464 141.829H280.912C280.944 143.669 282.528 144.917 284.768 144.917C287.184 144.917 288.48 143.349 288.48 141.765Z" fill="#7F7F7F"/>
<path d="M220 38H244C246.122 38 248.157 38.8429 249.657 40.3431C251.157 41.8434 252 43.8783 252 46V119H212V46C212 43.8783 212.843 41.8434 214.343 40.3431C215.843 38.8429 217.878 38 220 38V38Z" fill="#F2F5F7"/>
<path d="M228.232 144.805H229.688V139.781H233.624V138.597H229.688V134.837H234.536V133.653H228.232V144.805Z" fill="#7F7F7F"/>
<path d="M167 81.998H191C193.122 81.998 195.157 82.8409 196.657 84.3412C198.157 85.8415 199 87.8763 199 89.998V118.998H159V89.998C159 87.8763 159.843 85.8415 161.343 84.3412C162.843 82.8409 164.878 81.998 167 81.998V81.998Z" fill="#F2F5F7"/>
<path d="M174.544 134.837H177.6V144.805H179.056V134.837H182.096V133.653H174.544V134.837Z" fill="#7F7F7F"/>
<path d="M114 43.998H138C140.122 43.998 142.157 44.8409 143.657 46.3412C145.157 47.8415 146 49.8763 146 51.998V118.998H106V51.998C106 49.8763 106.843 47.8415 108.343 46.3412C109.843 44.8409 111.878 43.998 114 43.998V43.998Z" fill="#F2F5F7"/>
<path d="M121.488 144.821L123.104 144.805L125.792 135.829L128.384 144.805H130.016L133.248 133.653H131.68L129.232 143.077L126.672 133.653H125.04L122.352 143.109L119.92 133.653H118.368L121.488 144.821Z" fill="#7F7F7F"/>
<path d="M61 61H85C87.1217 61 89.1566 61.8429 90.6569 63.3431C92.1571 64.8434 93 66.8783 93 69V119H53V69C53 66.8783 53.8429 64.8434 55.3431 63.3431C56.8434 61.8429 58.8783 61 61 61V61Z" fill="#34CA98"/>
<path d="M68.544 134.837H71.6V144.805H73.056V134.837H76.096V133.653H68.544V134.837Z" fill="#3DB24B"/>
<path d="M66.9282 48H50C43.6348 48 37.5302 45.4715 33.0293 40.9706C28.5284 36.4697 26 30.3652 26 24C26 17.6348 28.5284 11.5303 33.0293 7.02942C37.5302 2.52855 43.6348 0 50 0H96C102.365 0 108.47 2.52855 112.971 7.02942C117.472 11.5303 120 17.6348 120 24C120 30.3652 117.472 36.4697 112.971 40.9706C108.47 45.4715 102.365 48 96 48H81.0698L74 55.0699L66.9282 48Z" fill="#F7F7F7"/>
<path d="M45.32 31.392H46.36V30.08C48.52 29.888 49.704 28.384 49.704 26.832C49.704 24.576 47.96 24.144 46.36 23.76V20.304C47.128 20.496 47.576 21.088 47.64 21.728H49.592C49.448 19.92 48.2 18.912 46.36 18.752V17.456H45.32V18.768C43.336 18.944 41.96 20.176 41.96 21.968C41.96 24.224 43.72 24.672 45.32 25.072V28.592C44.424 28.432 43.976 27.84 43.912 27.04H41.96C41.96 28.848 43.368 29.92 45.32 30.096V31.392ZM47.864 26.928C47.864 27.76 47.32 28.432 46.36 28.592V25.344C47.224 25.616 47.864 26.016 47.864 26.928ZM43.816 21.872C43.816 20.896 44.44 20.368 45.32 20.256V23.488C44.456 23.216 43.816 22.8 43.816 21.872ZM57.9343 30H59.7263V27.568H61.2143V25.984H59.7263V18.48H57.5183L52.1423 26.192V27.568H57.9343V30ZM54.2383 25.984L58.0143 20.336V25.984H54.2383ZM62.6936 21.216H64.4696C64.5816 20.4 65.1736 19.632 66.4536 19.632C67.7016 19.632 68.3576 20.304 68.3576 21.312C68.3576 22.56 67.3496 23.04 65.7016 23.056H65.2696V24.56H65.6856C67.5896 24.56 68.5816 25.088 68.5816 26.624C68.5816 27.712 67.9096 28.544 66.5496 28.544C65.1736 28.544 64.3736 27.712 64.2936 26.624H62.5336C62.6456 28.912 64.3576 30.064 66.5656 30.064C68.9976 30.064 70.3096 28.656 70.3096 26.8C70.3096 25.184 69.5256 24.176 68.3096 23.808V23.744C69.2216 23.44 70.1016 22.496 70.1016 21.104C70.1016 19.408 68.8376 18.064 66.5176 18.064C64.3896 18.064 62.8216 19.2 62.6936 21.216ZM74.3536 28.944C74.3536 28.288 73.8416 27.776 73.2016 27.776C72.5456 27.776 72.0336 28.288 72.0336 28.944C72.0336 29.6 72.5456 30.112 73.2016 30.112C73.8416 30.112 74.3536 29.6 74.3536 28.944ZM76.085 24.016C76.085 27.408 76.981 29.968 80.245 29.968C83.509 29.968 84.405 27.408 84.405 24.016C84.405 20.688 83.509 18.128 80.245 18.128C76.981 18.128 76.085 20.688 76.085 24.016ZM82.613 24.016C82.613 26.304 82.373 28.304 80.245 28.304C78.117 28.304 77.877 26.304 77.877 24.016C77.877 21.84 78.117 19.792 80.245 19.792C82.373 19.792 82.613 21.84 82.613 24.016ZM86.335 24.016C86.335 27.408 87.231 29.968 90.495 29.968C93.759 29.968 94.655 27.408 94.655 24.016C94.655 20.688 93.759 18.128 90.495 18.128C87.231 18.128 86.335 20.688 86.335 24.016ZM92.863 24.016C92.863 26.304 92.623 28.304 90.495 28.304C88.367 28.304 88.127 26.304 88.127 24.016C88.127 21.84 88.367 19.792 90.495 19.792C92.623 19.792 92.863 21.84 92.863 24.016Z" fill="#34CA98"/>
</svg>
