<svg width="21" height="21" viewBox="0 0 21 21" fill="none" xmlns="http://www.w3.org/2000/svg">
<path d="M2.35237 20.9996C2.04235 21.0057 1.73419 20.9482 1.44727 20.8307C1.16034 20.7131 0.900544 20.5378 0.683995 20.3159C0.462056 20.0993 0.286935 19.8397 0.169356 19.5528C0.0517769 19.2658 -0.00568829 18.9578 0.000467611 18.6478V2.35221C-0.00582705 2.04217 0.051484 1.73419 0.169071 1.44725C0.286658 1.1603 0.461944 0.90044 0.683995 0.683975C0.900544 0.462036 1.16034 0.286914 1.44727 0.169335C1.73419 0.0517565 2.04235 -0.00570878 2.35237 0.000447127H18.6491C18.9591 -0.00557036 19.267 0.051907 19.5539 0.169478C19.8408 0.287049 20.1005 0.462147 20.3172 0.683975C20.5387 0.900749 20.7136 1.16064 20.831 1.44753C20.9483 1.73442 21.0057 2.0423 20.9996 2.35221V18.6478C21.0055 18.9577 20.948 19.2655 20.8307 19.5523C20.7133 19.8392 20.5386 20.099 20.3172 20.3159C20.1005 20.5377 19.8408 20.7128 19.5539 20.8304C19.267 20.948 18.9591 21.0056 18.6491 20.9996H2.35237ZM2.35237 18.6478H18.6491V2.35221H2.35237V18.6478ZM10.5427 11.7931L8.25035 14.0854L6.99979 12.8337L9.29216 10.5414L6.99979 8.24906L8.25035 6.99863L10.5427 9.29087L12.8758 6.99863L14.125 8.24906L11.7919 10.5414L14.125 12.8337L12.8758 14.0842L10.5427 11.7931Z" fill="#34CA98"/>
</svg>
