<svg width="24" height="24" viewBox="0 0 24 24" fill="none" xmlns="http://www.w3.org/2000/svg">
<path d="M11 8.74995V12.4299C11.0012 12.6033 11.0469 12.7734 11.1327 12.9239C11.2185 13.0745 11.3415 13.2006 11.49 13.2899L14.61 15.1399C14.7815 15.2402 14.9855 15.2692 15.1782 15.2206C15.3708 15.1719 15.5366 15.0496 15.64 14.8799C15.6908 14.7953 15.7244 14.7015 15.7389 14.6038C15.7533 14.5062 15.7483 14.4066 15.7242 14.3109C15.7 14.2152 15.6572 14.1252 15.5981 14.0461C15.539 13.9669 15.4649 13.9003 15.38 13.8499L12.51 12.1399V8.73995C12.5026 8.54261 12.4195 8.3557 12.278 8.21793C12.1365 8.08017 11.9475 8.00212 11.75 7.99995C11.5515 8.00126 11.3615 8.0807 11.2211 8.22106C11.0807 8.36143 11.0013 8.55144 11 8.74995ZM21 9.49995V4.20995C20.9986 4.11208 20.9685 4.01678 20.9135 3.93584C20.8585 3.8549 20.7809 3.7919 20.6904 3.75463C20.5999 3.71737 20.5005 3.70748 20.4044 3.7262C20.3083 3.74492 20.2199 3.79143 20.15 3.85995L18.37 5.63995C16.9328 4.20015 15.0503 3.28972 13.0293 3.0571C11.0084 2.82447 8.96821 3.28339 7.24153 4.35901C5.51484 5.43462 4.20349 7.06349 3.52131 8.98001C2.83912 10.8965 2.82635 12.9876 3.48507 14.9123C4.1438 16.837 5.43515 18.4818 7.14857 19.5784C8.86199 20.6751 10.8964 21.1588 12.92 20.9509C14.9437 20.743 16.8372 19.8556 18.2918 18.4335C19.7465 17.0114 20.6764 15.1384 20.93 13.1199C20.947 12.9789 20.9338 12.8359 20.8913 12.7003C20.8487 12.5648 20.7778 12.4399 20.6832 12.3339C20.5885 12.2279 20.4724 12.1433 20.3426 12.0858C20.2127 12.0282 20.072 11.9989 19.93 11.9999C19.6898 11.999 19.4576 12.0859 19.2771 12.2443C19.0966 12.4027 18.9802 12.6217 18.95 12.8599C18.735 14.571 17.8973 16.1429 16.5969 17.2755C15.2964 18.4081 13.6244 19.022 11.9 18.9999C10.0859 18.9495 8.36002 18.2064 7.07679 16.9231C5.79355 15.6399 5.05041 13.914 4.99999 12.0999C4.97984 10.7069 5.37584 9.33949 6.13731 8.17279C6.89879 7.00608 7.99109 6.09315 9.27441 5.55082C10.5577 5.0085 11.9737 4.86146 13.3411 5.12852C14.7085 5.39558 15.965 6.0646 16.95 7.04995L14.86 9.13995C14.788 9.2093 14.7385 9.29861 14.7178 9.39638C14.6971 9.49415 14.7062 9.59587 14.7438 9.68843C14.7815 9.78099 14.8461 9.86014 14.9291 9.91567C15.0122 9.9712 15.1101 10.0006 15.21 9.99995H20.5C20.6326 9.99995 20.7598 9.94727 20.8535 9.8535C20.9473 9.75973 21 9.63256 21 9.49995Z" fill="#747474"/>
</svg>
