<svg width="24" height="25" viewBox="0 0 24 25" fill="none" xmlns="http://www.w3.org/2000/svg">
<path d="M12 0.125977C5.376 0.125977 0 5.51004 0 12.144C0 18.7779 5.376 24.162 12 24.162C18.624 24.162 24 18.7779 24 12.144C24 5.51004 18.624 0.125977 12 0.125977ZM12 21.7584C6.708 21.7584 2.4 17.4439 2.4 12.144C2.4 6.84404 6.708 2.52958 12 2.52958C17.292 2.52958 21.6 6.84404 21.6 12.144C21.6 17.4439 17.292 21.7584 12 21.7584ZM10.8 16.9512H13.2V19.3548H10.8V16.9512ZM12.732 4.98125C10.26 4.62071 8.076 6.14699 7.416 8.33427C7.2 9.03131 7.728 9.74037 8.46 9.74037H8.7C9.192 9.74037 9.588 9.39185 9.756 8.93517C10.14 7.86557 11.28 7.13247 12.516 7.39687C13.656 7.63723 14.496 8.7549 14.4 9.92064C14.28 11.5311 12.456 11.8796 11.46 13.3818C11.46 13.3938 11.448 13.3938 11.448 13.4059C11.436 13.4299 11.424 13.4419 11.412 13.466C11.304 13.6462 11.196 13.8505 11.112 14.0669C11.1 14.1029 11.076 14.1269 11.064 14.163C11.052 14.187 11.052 14.2111 11.04 14.2471C10.896 14.6557 10.8 15.1485 10.8 15.7494H13.2C13.2 15.2446 13.332 14.824 13.536 14.4634C13.56 14.4274 13.572 14.3913 13.596 14.3553C13.692 14.187 13.812 14.0308 13.932 13.8866C13.944 13.8746 13.956 13.8505 13.968 13.8385C14.088 13.6943 14.22 13.5621 14.364 13.4299C15.516 12.3363 17.076 11.4469 16.752 9.15149C16.464 7.06036 14.82 5.29372 12.732 4.98125Z" fill="#4D4D4D"/>
</svg>
