<svg width="24" height="24" viewBox="0 0 24 24" fill="none" xmlns="http://www.w3.org/2000/svg">
<g clip-path="url(#clip0_1825_696)">
<path d="M12.0004 0C5.37207 0 0 5.37044 0 12.0004C0 18.6271 5.37207 24 12.0004 24C18.6263 24 23.9992 18.6271 23.9992 12.0004C23.9992 5.37044 18.6271 0 12.0004 0ZM12.0004 22.0425C6.45038 22.0425 1.95592 17.5472 1.95592 11.9996C1.95592 6.45119 6.45038 1.95429 12.0004 1.95429C17.5456 1.95429 22.0433 6.45201 22.0433 11.9996C22.0441 17.5472 17.5456 22.0425 12.0004 22.0425Z" fill="#4D4D4D"/>
<path d="M13.676 9.05469H10.3029V9.06038H9.04741V11.0211H10.3029V18.0241H8.97021V19.8979H10.3029V19.9109H13.676V19.8979H14.7795V18.0241H13.676V9.05469Z" fill="#4D4D4D"/>
<path d="M11.9665 7.72302C13.1001 7.72302 13.7867 6.96893 13.7867 6.03526C13.7648 5.0829 13.0992 4.35156 12.012 4.35156C10.9264 4.35156 10.2153 5.08208 10.2153 6.03526C10.2145 6.96893 10.9028 7.72302 11.9665 7.72302Z" fill="#4D4D4D"/>
</g>
<defs>
<clipPath id="clip0_1825_696">
<rect width="24" height="24" fill="white"/>
</clipPath>
</defs>
</svg>
