<svg width="15" height="17" viewBox="0 0 15 17" fill="none" xmlns="http://www.w3.org/2000/svg">
<path d="M7.02082 0L5.62927 7.04177L7.02082 17L11.9852 12.0209C12.967 11.0362 13.6355 9.78297 13.9065 8.41911C14.1775 7.05524 14.0388 5.64168 13.5081 4.35644C12.9773 3.0712 12.0781 1.97174 10.9237 1.19653C9.7693 0.42131 8.41134 0.00499186 7.02082 0V0Z" fill="#E50058"/>
<path d="M7.76484e-06 7.04177C-0.0013436 7.96607 0.179597 8.88157 0.532473 9.73587C0.885349 10.5902 1.40323 11.3665 2.05649 12.0204L7.02089 16.9995V0C6.09752 0.00137016 5.18347 0.184598 4.33091 0.539221C3.47836 0.893845 2.704 1.41292 2.05205 2.06681C1.4001 2.7207 0.883328 3.49659 0.531238 4.3502C0.179148 5.2038 -0.00136444 6.1184 7.76484e-06 7.04177Z" fill="#FF415B"/>
<path d="M7.02078 2.09422L5.6297 7.04249L7.02125 11.9908C8.33368 11.9908 9.59235 11.4694 10.5204 10.5414C11.4484 9.61335 11.9698 8.35468 11.9698 7.04225C11.9698 5.72983 11.4484 4.47116 10.5204 3.54313C9.59235 2.61511 8.33368 2.09375 7.02125 2.09375L7.02078 2.09422Z" fill="#FF415B"/>
<path d="M2.08826 7.04202C2.08788 8.35236 2.6074 9.60932 3.53279 10.537C4.45818 11.4647 5.71385 11.9874 7.02418 11.9903V2.09375C5.71385 2.09664 4.45818 2.6193 3.53279 3.547C2.6074 4.47471 2.08788 5.73168 2.08826 7.04202Z" fill="#FF7C48"/>
<path d="M9.86799 7.04274C9.86824 6.28672 9.56854 5.56148 9.03467 5.02619C8.50079 4.49089 7.77635 4.18926 7.02034 4.1875L5.62878 7.04274L7.02034 9.89799C7.77635 9.89623 8.50079 9.5946 9.03467 9.0593C9.56854 8.524 9.86824 7.79877 9.86799 7.04274Z" fill="#E1EBF0"/>
<path d="M4.17645 7.04274C4.1762 7.79877 4.4759 8.524 5.00977 9.0593C5.54365 9.5946 6.26808 9.89623 7.0241 9.89799V4.1875C6.26808 4.18926 5.54365 4.49089 5.00977 5.02619C4.4759 5.56148 4.1762 6.28672 4.17645 7.04274Z" fill="#FFF5F5"/>
</svg>
