<svg width="24" height="24" viewBox="0 0 24 24" fill="none" xmlns="http://www.w3.org/2000/svg">
<path d="M11.9998 22.9409C18.0424 22.9409 22.9409 18.0424 22.9409 11.9998C22.9409 5.95713 18.0424 1.05859 11.9998 1.05859C5.95713 1.05859 1.05859 5.95713 1.05859 11.9998C1.05859 18.0424 5.95713 22.9409 11.9998 22.9409Z" stroke="#34CA98" stroke-width="2"/>
<path d="M5.91882 14.2734H6.60882V9.89944H5.36082V10.5234H5.91882V14.2734ZM7.54848 12.0294C7.54848 13.3014 7.88448 14.2614 9.10848 14.2614C10.3325 14.2614 10.6685 13.3014 10.6685 12.0294C10.6685 10.7814 10.3325 9.82144 9.10848 9.82144C7.88448 9.82144 7.54848 10.7814 7.54848 12.0294ZM9.99648 12.0294C9.99648 12.8874 9.90648 13.6374 9.10848 13.6374C8.31048 13.6374 8.22048 12.8874 8.22048 12.0294C8.22048 11.2134 8.31048 10.4454 9.10848 10.4454C9.90648 10.4454 9.99648 11.2134 9.99648 12.0294ZM11.3922 12.0294C11.3922 13.3014 11.7282 14.2614 12.9522 14.2614C14.1762 14.2614 14.5122 13.3014 14.5122 12.0294C14.5122 10.7814 14.1762 9.82144 12.9522 9.82144C11.7282 9.82144 11.3922 10.7814 11.3922 12.0294ZM13.8402 12.0294C13.8402 12.8874 13.7502 13.6374 12.9522 13.6374C12.1542 13.6374 12.0642 12.8874 12.0642 12.0294C12.0642 11.2134 12.1542 10.4454 12.9522 10.4454C13.7502 10.4454 13.8402 11.2134 13.8402 12.0294ZM15.128 10.9554C15.128 11.5554 15.518 11.8974 16.04 11.8974C16.562 11.8974 16.952 11.5554 16.952 10.9554C16.952 10.3614 16.562 10.0194 16.04 10.0194C15.518 10.0194 15.128 10.3614 15.128 10.9554ZM16.04 10.4334C16.268 10.4334 16.418 10.5834 16.418 10.9554C16.418 11.3274 16.268 11.4834 16.04 11.4834C15.806 11.4834 15.662 11.3274 15.662 10.9554C15.662 10.5834 15.806 10.4334 16.04 10.4334ZM15.722 14.2734H16.394L18.788 10.0974H18.116L15.722 14.2734ZM17.57 13.4094C17.57 14.0094 17.96 14.3514 18.482 14.3514C18.998 14.3514 19.388 14.0094 19.388 13.4094C19.388 12.8094 18.998 12.4734 18.482 12.4734C17.96 12.4734 17.57 12.8094 17.57 13.4094ZM18.476 12.8874C18.704 12.8874 18.854 13.0374 18.854 13.4094C18.854 13.7814 18.704 13.9314 18.476 13.9314C18.248 13.9314 18.098 13.7814 18.098 13.4094C18.098 13.0374 18.248 12.8874 18.476 12.8874Z" fill="#34CA98"/>
</svg>
