<svg width="18" height="19" viewBox="0 0 18 19" fill="none" xmlns="http://www.w3.org/2000/svg">
<path d="M15.1146 10.729C14.9422 10.5368 14.732 10.3822 14.4971 10.2746C14.2623 10.1671 14.0077 10.109 13.7494 10.104C13.4893 10.1101 13.2331 10.1682 12.9958 10.2748C12.7586 10.3815 12.5452 10.5346 12.3682 10.725L11.0912 11.993C10.9911 11.937 10.8809 11.884 10.7807 11.832C10.6355 11.759 10.4983 11.691 10.3801 11.618C9.11493 10.7969 7.99244 9.7751 7.05687 8.593C6.62465 8.06865 6.2596 7.49254 5.97016 6.878C6.30168 6.578 6.60816 6.261 6.90663 5.959C7.01981 5.846 7.13299 5.729 7.24617 5.616C7.44585 5.44235 7.60592 5.22798 7.71562 4.98734C7.82531 4.7467 7.88207 4.48539 7.88207 4.221C7.88207 3.95661 7.82531 3.6953 7.71562 3.45466C7.60592 3.21402 7.44585 2.99965 7.24617 2.826L6.14443 1.726C6.01923 1.601 5.89003 1.472 5.76884 1.343C5.52646 1.093 5.26805 0.835 5.00964 0.593C4.83478 0.409468 4.62509 0.262516 4.39278 0.160707C4.16046 0.0588985 3.91018 0.00426764 3.65651 0C3.13729 0.00951604 2.64264 0.222509 2.27934 0.593L2.27133 0.601L0.898164 1.983C0.388886 2.48186 0.0775973 3.14786 0.0217834 3.858C-0.0250282 4.88093 0.15131 5.90181 0.538598 6.85C1.26196 8.73031 2.30751 10.4706 3.62847 11.993C5.36015 14.0746 7.51773 15.7624 9.95644 16.943C11.0642 17.5142 12.2703 17.8705 13.511 17.993C13.5962 17.993 13.6843 18.001 13.7654 18.001C14.2031 18.0115 14.6379 17.9276 15.0401 17.7551C15.4424 17.5825 15.8026 17.3253 16.0961 17.001C16.0961 16.993 16.1081 16.989 16.1121 16.981C16.3342 16.7248 16.5702 16.4811 16.8193 16.251C16.9925 16.086 17.1708 15.912 17.3441 15.731C17.7237 15.3625 17.9428 14.8596 17.954 14.331C17.9488 14.0706 17.891 13.8139 17.7841 13.5763C17.6773 13.3386 17.5235 13.125 17.3321 12.948L15.1146 10.729ZM16.5608 14.975C16.4036 15.144 16.2413 15.298 16.0681 15.467C15.7943 15.7218 15.5342 15.9908 15.2888 16.273C15.0981 16.4842 14.8633 16.6511 14.6009 16.7619C14.3386 16.8726 14.0551 16.9245 13.7704 16.914C13.7104 16.914 13.6453 16.914 13.5852 16.914C12.4849 16.8007 11.4161 16.4804 10.4352 15.97C8.13602 14.857 6.1015 13.2665 4.46779 11.305C3.22682 9.87318 2.24405 8.23726 1.56321 6.47C1.22418 5.67334 1.06944 4.81062 1.1105 3.946C1.14178 3.49118 1.34007 3.06388 1.66738 2.746L3.04455 1.371C3.20522 1.20103 3.42483 1.09873 3.65851 1.085C3.88456 1.09822 4.09639 1.19948 4.24844 1.367L4.26046 1.379C4.50685 1.609 4.74122 1.847 4.98761 2.101C5.11281 2.23 5.24201 2.359 5.37121 2.492L6.47095 3.593C6.57022 3.66432 6.65107 3.75819 6.70684 3.86687C6.76262 3.97554 6.7917 4.09589 6.7917 4.218C6.7917 4.34011 6.76262 4.46046 6.70684 4.56914C6.65107 4.67781 6.57022 4.77168 6.47095 4.843C6.35376 4.96 6.24058 5.077 6.1234 5.19C5.78386 5.537 5.46136 5.859 5.1098 6.174C5.10179 6.182 5.09378 6.186 5.08977 6.194C4.96535 6.30684 4.87851 6.455 4.84091 6.61857C4.80331 6.78214 4.81675 6.95328 4.87944 7.109L4.89146 7.145C5.22281 7.91116 5.66118 8.62659 6.19351 9.27C7.20185 10.5452 8.4136 11.6459 9.78016 12.528C9.94232 12.6265 10.1095 12.7167 10.2809 12.798C10.4262 12.871 10.5634 12.939 10.6816 13.012C10.6976 13.02 10.7136 13.032 10.7297 13.04C10.8533 13.1048 10.9907 13.139 11.1303 13.14C11.2461 13.1371 11.3601 13.1111 11.4656 13.0633C11.571 13.0155 11.6658 12.9471 11.7443 12.862L13.1314 11.493C13.2885 11.3184 13.507 11.2109 13.7414 11.193C13.8534 11.1998 13.9627 11.2294 14.0628 11.2799C14.1629 11.3305 14.2515 11.401 14.3233 11.487L14.3313 11.495L16.5568 13.717C16.6524 13.7916 16.7298 13.887 16.7831 13.9958C16.8364 14.1046 16.8642 14.2241 16.8645 14.3453C16.8648 14.4664 16.8375 14.586 16.7847 14.6951C16.732 14.8042 16.6551 14.8999 16.5598 14.975H16.5608Z" fill="#747474"/>
</svg>
