<svg width="24" height="24" viewBox="0 0 24 24" fill="none" xmlns="http://www.w3.org/2000/svg">
<path d="M19.5 12C19.5 11.77 19.49 11.55 19.47 11.32L21.33 9.91003C21.5235 9.76166 21.6566 9.54804 21.7044 9.30891C21.7523 9.06978 21.7116 8.82142 21.59 8.61003L19.72 5.38003C19.6001 5.16821 19.4062 5.00817 19.1754 4.93065C18.9447 4.85312 18.6935 4.86359 18.47 4.96003L16.32 5.87003C15.951 5.60896 15.5595 5.38139 15.15 5.19003L14.86 2.88003C14.8307 2.63783 14.7139 2.41469 14.5316 2.25261C14.3493 2.09054 14.114 2.0007 13.87 2.00003H10.14C9.89432 1.99825 9.65659 2.08698 9.47215 2.24929C9.28771 2.41159 9.16948 2.63612 9.14 2.88003L8.85 5.19003C8.44053 5.38139 8.04897 5.60896 7.68 5.87003L5.53 4.96003C5.30652 4.86359 5.05529 4.85312 4.82457 4.93065C4.59385 5.00817 4.39991 5.16821 4.28 5.38003L2.41 8.62003C2.28883 8.83153 2.24841 9.07977 2.29621 9.31878C2.34402 9.5578 2.47681 9.7714 2.67 9.92003L4.53 11.33C4.51 11.55 4.5 11.77 4.5 12C4.5 12.23 4.51 12.45 4.53 12.68L2.67 14.09C2.47646 14.2384 2.3434 14.452 2.29557 14.6911C2.24774 14.9303 2.28841 15.1786 2.41 15.39L4.28 18.62C4.39991 18.8318 4.59385 18.9919 4.82457 19.0694C5.05529 19.1469 5.30652 19.1365 5.53 19.04L7.68 18.13C8.04897 18.3911 8.44053 18.6187 8.85 18.81L9.14 21.12C9.16928 21.3622 9.28608 21.5854 9.46841 21.7474C9.65075 21.9095 9.88604 21.9993 10.13 22H13.86C14.104 21.9993 14.3393 21.9095 14.5216 21.7474C14.7039 21.5854 14.8207 21.3622 14.85 21.12L15.14 18.81C15.5495 18.6187 15.941 18.3911 16.31 18.13L18.46 19.04C18.6835 19.1365 18.9347 19.1469 19.1654 19.0694C19.3962 18.9919 19.5901 18.8318 19.71 18.62L21.58 15.39C21.7012 15.1785 21.7416 14.9303 21.6938 14.6913C21.646 14.4523 21.5132 14.2387 21.32 14.09L19.46 12.68C19.4883 12.4545 19.5016 12.2273 19.5 12ZM12.04 15.5C11.3478 15.5 10.6711 15.2948 10.0955 14.9102C9.51993 14.5256 9.07133 13.979 8.80642 13.3394C8.54152 12.6999 8.4722 11.9961 8.60725 11.3172C8.7423 10.6383 9.07564 10.0146 9.56513 9.52515C10.0546 9.03567 10.6783 8.70233 11.3572 8.56728C12.0361 8.43223 12.7399 8.50154 13.3794 8.76645C14.0189 9.03135 14.5656 9.47996 14.9501 10.0555C15.3347 10.6311 15.54 11.3078 15.54 12C15.54 12.9283 15.1713 13.8185 14.5149 14.4749C13.8585 15.1313 12.9683 15.5 12.04 15.5Z" fill="#747474"/>
</svg>
