<svg width="15" height="17" viewBox="0 0 15 17" fill="none" xmlns="http://www.w3.org/2000/svg">
<path d="M7.0207 0L5.62915 7.04177L7.0207 17L11.9851 12.0209C12.9669 11.0362 13.6354 9.78297 13.9064 8.41911C14.1773 7.05524 14.0387 5.64168 13.5079 4.35644C12.9771 3.0712 12.0779 1.97174 10.9236 1.19653C9.76918 0.42131 8.41122 0.00499186 7.0207 0V0Z" fill="#3193B3"/>
<path d="M7.76484e-06 7.04177C-0.0013436 7.96607 0.179597 8.88157 0.532473 9.73587C0.885349 10.5902 1.40323 11.3665 2.05649 12.0204L7.02089 16.9995V0C6.09752 0.00137016 5.18347 0.184598 4.33091 0.539221C3.47836 0.893845 2.704 1.41292 2.05205 2.06681C1.4001 2.7207 0.883328 3.49659 0.531238 4.3502C0.179148 5.2038 -0.00136444 6.1184 7.76484e-06 7.04177Z" fill="#0B799D"/>
<path d="M7.0207 2.09277L5.62915 7.04152L7.0207 11.9898C8.33313 11.9898 9.5918 11.4684 10.5198 10.5404C11.4478 9.61237 11.9692 8.3537 11.9692 7.04128C11.9692 5.72885 11.4478 4.47018 10.5198 3.54216C9.5918 2.61413 8.33313 2.09277 7.0207 2.09277Z" fill="#0B799D"/>
<path d="M2.08814 7.04152C2.08775 8.35186 2.60727 9.60882 3.53267 10.5365C4.45806 11.4642 5.71372 11.9869 7.02406 11.9898V2.09277C5.71364 2.09566 4.45791 2.61839 3.5325 3.5462C2.60709 4.47401 2.08763 5.73109 2.08814 7.04152Z" fill="#308DAB"/>
<path d="M9.86762 7.04177C9.86787 6.28575 9.56818 5.56051 9.0343 5.02521C8.50043 4.48991 7.77599 4.18828 7.01997 4.18652L5.62842 7.04177L7.01997 9.89701C7.77599 9.89525 8.50043 9.59363 9.0343 9.05833C9.56818 8.52303 9.86787 7.79779 9.86762 7.04177Z" fill="#E1EBF0"/>
<path d="M4.17651 7.04177C4.17626 7.79779 4.47596 8.52303 5.00983 9.05833C5.54371 9.59363 6.26815 9.89525 7.02416 9.89701V4.18652C6.26815 4.18828 5.54371 4.48991 5.00983 5.02521C4.47596 5.56051 4.17626 6.28575 4.17651 7.04177Z" fill="#FFF5F5"/>
</svg>
