<svg width="21" height="21" viewBox="0 0 21 21" fill="none" xmlns="http://www.w3.org/2000/svg">
<path d="M3.07496 3.08206C4.03594 2.08784 5.19076 1.30143 6.46792 0.771506C7.74509 0.241584 9.11743 -0.0205735 10.5 0.00125984C11.8826 -0.0205735 13.2549 0.241584 14.5321 0.771506C15.8092 1.30143 16.9641 2.08784 17.925 3.08206C18.9162 4.04353 19.7002 5.19759 20.2288 6.47327C20.7574 7.74896 21.0195 9.11929 20.9989 10.5C21.0195 11.8807 20.7574 13.251 20.2288 14.5267C19.7002 15.8024 18.9162 16.9565 17.925 17.9179C16.9641 18.9122 15.8092 19.6986 14.5321 20.2285C13.2549 20.7584 11.8826 21.0206 10.5 20.9987C9.11743 21.0206 7.74509 20.7584 6.46792 20.2285C5.19076 19.6986 4.03594 18.9122 3.07496 17.9179C2.08381 16.9565 1.29982 15.8024 0.771204 14.5267C0.242588 13.251 -0.0194758 11.8807 0.00112705 10.5C-0.0194758 9.11929 0.242588 7.74896 0.771204 6.47327C1.29982 5.19759 2.08381 4.04353 3.07496 3.08206ZM14.9504 16.8109L13.7663 11.7319L17.6509 8.33143L12.4878 7.88815L10.4755 3.15555L8.45972 7.93831L3.29544 8.33143L7.23368 11.7319L6.04964 16.8109L10.4755 14.1477L14.9504 16.8109Z" fill="#34CA98"/>
</svg>
