<svg width="18" height="21" viewBox="0 0 18 21" fill="none" xmlns="http://www.w3.org/2000/svg">
<path d="M9.00014 21C8.67273 20.9999 8.35101 20.9105 8.06718 20.7409L0.932958 16.4591C0.64977 16.2888 0.414491 16.0441 0.25078 15.7497C0.0870699 15.4553 0.000602677 15.1214 0 14.7814V6.21876C0.000632269 5.87856 0.0870826 5.54446 0.25078 5.24986C0.414478 4.95525 0.649758 4.71035 0.932958 4.53974L8.06718 0.259068C8.35103 0.0895034 8.67274 0.000146088 9.00014 0C9.32754 9.16858e-05 9.64899 0.0894527 9.93282 0.259068L17.067 4.53974C17.3502 4.71044 17.5855 4.95527 17.7492 5.24986C17.9129 5.54444 17.9993 5.87859 18 6.21876V14.7814C17.9993 15.1214 17.9129 15.4552 17.7492 15.7496C17.5855 16.044 17.3502 16.2887 17.067 16.4591L9.93282 20.7409C9.64903 20.9106 9.32756 21 9.00014 21ZM5.447 9.50532C5.37966 9.50426 5.31267 9.51759 5.25049 9.54448C5.18831 9.57138 5.13224 9.6113 5.0855 9.6617L4.35919 10.4154C4.31092 10.4643 4.27277 10.5231 4.2471 10.5879C4.22142 10.6527 4.2087 10.7222 4.20982 10.7923C4.20857 10.8623 4.22114 10.9319 4.24682 10.9968C4.2725 11.0616 4.31082 11.1203 4.35919 11.1691L6.95251 13.8643L7.67772 14.6192C7.72492 14.6692 7.78121 14.7087 7.84353 14.7354C7.90586 14.762 7.97292 14.7752 8.04032 14.7743C8.10772 14.7753 8.1745 14.7622 8.23683 14.7355C8.29917 14.7088 8.35576 14.6692 8.40292 14.6192L9.12813 13.8643L14.9747 7.78798C15.023 7.739 15.0609 7.6803 15.0866 7.6155C15.1122 7.55071 15.1249 7.48119 15.1238 7.41113C15.1248 7.34107 15.1122 7.27153 15.0866 7.20675C15.0609 7.14197 15.0229 7.0833 14.9747 7.03428L14.2495 6.28057C14.2026 6.23014 14.1461 6.19025 14.0837 6.16336C14.0213 6.13647 13.9544 6.12311 13.8869 6.12419C13.8193 6.12316 13.7519 6.13648 13.6893 6.16336C13.6268 6.19024 13.5702 6.23016 13.523 6.28057L8.03895 11.9859L5.80851 9.66284C5.76192 9.61248 5.70575 9.57256 5.64379 9.54548C5.58183 9.5184 5.51532 9.50471 5.4481 9.50532H5.447Z" fill="#34CA98"/>
</svg>
