<svg width="20" height="24" viewBox="0 0 20 24" fill="none" xmlns="http://www.w3.org/2000/svg">
<path d="M19.5325 4.71751L15.0325 0.217512C14.891 0.0771213 14.6994 -0.00111303 14.5 1.19671e-05H2.5C1.25734 1.19671e-05 0.25 1.00736 0.25 2.25001V21.75C0.25 22.9927 1.25734 24 2.5 24H17.5C18.7427 24 19.75 22.9927 19.75 21.75V5.25001C19.7512 5.05065 19.6729 4.85907 19.5325 4.71751ZM18.25 21.75C18.25 22.1642 17.9142 22.5 17.5 22.5H2.5C2.08577 22.5 1.75 22.1642 1.75 21.75V2.25001C1.75 1.83578 2.08577 1.50001 2.5 1.50001H13.75V4.50001C13.75 5.32843 14.4216 6.00001 15.25 6.00001H18.25V21.75Z" fill="#4D4D4D"/>
<path d="M16.75 18H15.25V19.5H16.75V18Z" fill="#4D4D4D"/>
<path d="M16.75 10.5H3.25V12H16.75V10.5Z" fill="#4D4D4D"/>
<path d="M16.75 14.25H3.25V15.75H16.75V14.25Z" fill="#4D4D4D"/>
<path d="M13.75 18H3.25V19.5H13.75V18Z" fill="#4D4D4D"/>
</svg>
