<svg width="29" height="29" viewBox="0 0 29 29" fill="none" xmlns="http://www.w3.org/2000/svg">
<path d="M14.4998 2.41699C12.11 2.41699 9.7738 3.12567 7.7867 4.4534C5.79961 5.78113 4.25086 7.66829 3.3363 9.87623C2.42174 12.0842 2.18245 14.5137 2.64869 16.8577C3.11493 19.2016 4.26575 21.3546 5.95564 23.0445C7.64552 24.7344 9.79856 25.8852 12.1425 26.3515C14.4864 26.8177 16.916 26.5784 19.1239 25.6639C21.3319 24.7493 23.219 23.2006 24.5468 21.2135C25.8745 19.2264 26.5832 16.8902 26.5832 14.5003C26.5832 12.9135 26.2706 11.3423 25.6634 9.87623C25.0561 8.41022 24.1661 7.07816 23.0441 5.95612C21.922 4.83408 20.59 3.94403 19.1239 3.33678C17.6579 2.72954 16.0866 2.41699 14.4998 2.41699ZM8.54276 22.0887C9.06234 21.0012 12.2282 19.9378 14.4998 19.9378C16.7715 19.9378 19.9494 21.0012 20.4569 22.0887C18.763 23.4345 16.6633 24.1671 14.4998 24.1671C12.3364 24.1671 10.2367 23.4345 8.54276 22.0887ZM22.1848 20.3366C20.4569 18.2341 16.264 17.5212 14.4998 17.5212C12.7357 17.5212 8.54276 18.2341 6.81484 20.3366C5.72172 18.904 5.0508 17.1943 4.87782 15.4006C4.70483 13.6069 5.03667 11.8006 5.83587 10.1855C6.63508 8.57038 7.86982 7.21083 9.40075 6.26027C10.9317 5.30972 12.6978 4.80602 14.4998 4.80602C16.3019 4.80602 18.068 5.30972 19.5989 6.26027C21.1299 7.21083 22.3646 8.57038 23.1638 10.1855C23.963 11.8006 24.2949 13.6069 24.1219 15.4006C23.9489 17.1943 23.278 18.904 22.1848 20.3366ZM14.4998 7.25033C13.6634 7.25033 12.8457 7.49836 12.1502 7.96307C11.4548 8.42778 10.9127 9.08828 10.5926 9.86106C10.2725 10.6338 10.1888 11.4842 10.3519 12.3046C10.5151 13.1249 10.9179 13.8785 11.5094 14.47C12.1008 15.0614 12.8544 15.4642 13.6748 15.6274C14.4952 15.7906 15.3455 15.7068 16.1183 15.3867C16.8911 15.0666 17.5516 14.5246 18.0163 13.8291C18.481 13.1336 18.729 12.3159 18.729 11.4795C18.7304 10.9237 18.622 10.3731 18.41 9.85936C18.198 9.34561 17.8865 8.87882 17.4935 8.48582C17.1005 8.09282 16.6337 7.78136 16.12 7.56933C15.6062 7.3573 15.0556 7.24889 14.4998 7.25033ZM14.4998 13.292C14.1414 13.292 13.7909 13.1857 13.4929 12.9865C13.1948 12.7874 12.9625 12.5043 12.8253 12.1731C12.6881 11.8419 12.6522 11.4775 12.7222 11.1259C12.7921 10.7743 12.9647 10.4513 13.2182 10.1979C13.4717 9.94438 13.7947 9.77175 14.1462 9.70182C14.4978 9.63188 14.8623 9.66778 15.1935 9.80496C15.5246 9.94214 15.8077 10.1745 16.0069 10.4725C16.206 10.7706 16.3123 11.121 16.3123 11.4795C16.3123 11.9602 16.1214 12.4212 15.7815 12.7611C15.4416 13.101 14.9805 13.292 14.4998 13.292Z" fill="#4D4D4D"/>
</svg>
