<svg width="30" height="20" viewBox="0 0 30 20" fill="none" xmlns="http://www.w3.org/2000/svg">
<path d="M15.7667 5.00867C15.6823 4.76221 15.5227 4.54844 15.3104 4.39745C15.0981 4.24646 14.8438 4.16586 14.5833 4.167H5.41667C5.15634 4.16661 4.90239 4.2475 4.69025 4.39838C4.47811 4.54927 4.31837 4.76263 4.23333 5.00867L2.5 10.0003V16.2503C2.5 16.5819 2.6317 16.8998 2.86612 17.1342C3.10054 17.3686 3.41848 17.5003 3.75 17.5003C4.08152 17.5003 4.39946 17.3686 4.63388 17.1342C4.8683 16.8998 5 16.5819 5 16.2503V15.8337H15V16.2503C15 16.5819 15.1317 16.8998 15.3661 17.1342C15.6005 17.3686 15.9185 17.5003 16.25 17.5003C16.5815 17.5003 16.8995 17.3686 17.1339 17.1342C17.3683 16.8998 17.5 16.5819 17.5 16.2503V10.0003L15.7667 5.00867ZM6.25 13.3337C6.00277 13.3337 5.7611 13.2604 5.55554 13.123C5.34998 12.9857 5.18976 12.7904 5.09515 12.562C5.00054 12.3336 4.97579 12.0823 5.02402 11.8398C5.07225 11.5973 5.1913 11.3746 5.36612 11.1998C5.54093 11.025 5.76366 10.9059 6.00614 10.8577C6.24861 10.8095 6.49995 10.8342 6.72835 10.9288C6.95676 11.0234 7.15199 11.1836 7.28934 11.3892C7.42669 11.5948 7.5 11.8364 7.5 12.0837C7.5 12.4152 7.3683 12.7331 7.13388 12.9676C6.89946 13.202 6.58152 13.3337 6.25 13.3337ZM13.75 13.3337C13.5028 13.3337 13.2611 13.2604 13.0555 13.123C12.85 12.9857 12.6898 12.7904 12.5951 12.562C12.5005 12.3336 12.4758 12.0823 12.524 11.8398C12.5722 11.5973 12.6913 11.3746 12.8661 11.1998C13.0409 11.025 13.2637 10.9059 13.5061 10.8577C13.7486 10.8095 13.9999 10.8342 14.2284 10.9288C14.4568 11.0234 14.652 11.1836 14.7893 11.3892C14.9267 11.5948 15 11.8364 15 12.0837C15 12.4152 14.8683 12.7331 14.6339 12.9676C14.3995 13.202 14.0815 13.3337 13.75 13.3337ZM4.84167 8.33367L5.70833 5.83367H14.2833L15.15 8.33367H4.84167Z" fill="#4D4D4D"/>
<path d="M19.1782 12.1835H19.734L18.2915 5.84354C18.2154 5.51173 18.0293 5.2154 17.7635 5.0027C17.4977 4.78999 17.1678 4.6734 16.8273 4.67188H14.6715C14.4726 4.67188 14.2818 4.75089 14.1412 4.89154C14.0005 5.0322 13.9215 5.22296 13.9215 5.42188C13.9215 5.62079 14.0005 5.81155 14.1412 5.95221C14.2818 6.09286 14.4726 6.17188 14.6715 6.17188H16.8273L17.894 10.8669H17.8857C17.0808 11.1095 16.3596 11.5721 15.8035 12.2026C15.2474 12.8331 14.8784 13.6063 14.7382 14.4352H11.6665V15.9352H16.1732V15.1852C16.173 14.7907 16.2506 14.4 16.4015 14.0355C16.5525 13.671 16.7739 13.3399 17.053 13.061C17.3322 12.7822 17.6635 12.5612 18.0282 12.4106C18.3929 12.2601 18.7836 12.1829 19.1782 12.1835Z" fill="#4D4D4D"/>
<path d="M25.751 7.67673H25.3343L24.3118 4.90507C24.2062 4.61652 24.0144 4.36739 23.7625 4.19137C23.5107 4.01535 23.2108 3.92094 22.9035 3.9209H20.6802C20.4813 3.9209 20.2905 3.99992 20.1499 4.14057C20.0092 4.28122 19.9302 4.47199 19.9302 4.6709C19.9302 4.86981 20.0092 5.06058 20.1499 5.20123C20.2905 5.34188 20.4813 5.4209 20.6802 5.4209H22.9035L23.7302 7.6709H19.4785L19.8243 9.1709H22.9343C22.6008 9.61471 22.37 10.127 22.2585 10.6709H20.1618L20.5077 12.1709H22.2577C22.4158 12.9917 22.847 13.7349 23.4811 14.2796C24.1152 14.8243 24.9149 15.1384 25.7502 15.1709C26.3272 15.1931 26.9016 15.083 27.4294 14.8491C27.9573 14.6152 28.4247 14.2636 28.7959 13.8213C29.167 13.379 29.4321 12.8577 29.5707 12.2972C29.7094 11.7367 29.7181 11.1519 29.596 10.5876C29.3731 9.74217 28.8732 8.99593 28.1761 8.46823C27.4791 7.94052 26.6252 7.66183 25.751 7.67673ZM25.8485 13.6859C25.2791 13.6557 24.7415 13.4141 24.3408 13.0085C23.9401 12.6028 23.7051 12.0623 23.6818 11.4926C23.672 11.1569 23.7377 10.8234 23.8742 10.5165C24.0106 10.2097 24.2143 9.93753 24.4702 9.72006L24.936 10.9967C24.9694 11.0896 25.0209 11.1749 25.0873 11.2478C25.1538 11.3207 25.234 11.3798 25.3233 11.4217C25.4126 11.4636 25.5094 11.4874 25.6079 11.4919C25.7065 11.4963 25.8049 11.4812 25.8977 11.4476C25.9905 11.4141 26.0758 11.3627 26.1488 11.2963C26.2217 11.2298 26.2808 11.1496 26.3226 11.0603C26.3645 10.9709 26.3884 10.8742 26.3928 10.7757C26.3972 10.6771 26.3822 10.5786 26.3485 10.4859L25.8785 9.18673L25.886 9.17923C26.1891 9.17037 26.4909 9.22274 26.7734 9.33322C27.0558 9.44369 27.313 9.60999 27.5297 9.82217C27.7463 10.0344 27.918 10.2881 28.0343 10.5681C28.1507 10.8481 28.2093 11.1488 28.2068 11.452C28.2043 11.7553 28.1406 12.0549 28.0196 12.333C27.8986 12.611 27.7228 12.8619 27.5026 13.0704C27.2825 13.2789 27.0225 13.4409 26.7383 13.5467C26.4541 13.6525 26.1515 13.6998 25.8485 13.6859Z" fill="#4D4D4D"/>
<path d="M19.1748 12.9355C18.7298 12.9355 18.2948 13.0675 17.9248 13.3147C17.5548 13.562 17.2664 13.9134 17.0961 14.3245C16.9258 14.7356 16.8812 15.188 16.968 15.6245C17.0549 16.061 17.2691 16.4619 17.5838 16.7765C17.8985 17.0912 18.2994 17.3055 18.7359 17.3923C19.1723 17.4791 19.6247 17.4346 20.0358 17.2643C20.447 17.094 20.7984 16.8056 21.0456 16.4356C21.2928 16.0656 21.4248 15.6306 21.4248 15.1855C21.4248 14.5888 21.1878 14.0165 20.7658 13.5946C20.3438 13.1726 19.7715 12.9355 19.1748 12.9355ZM19.1748 15.9405C19.0265 15.9405 18.8815 15.8966 18.7581 15.8141C18.6348 15.7317 18.5387 15.6146 18.4819 15.4776C18.4251 15.3405 18.4103 15.1897 18.4392 15.0442C18.4682 14.8987 18.5396 14.7651 18.6445 14.6602C18.7494 14.5553 18.883 14.4839 19.0285 14.455C19.174 14.426 19.3248 14.4409 19.4618 14.4976C19.5989 14.5544 19.716 14.6505 19.7984 14.7739C19.8808 14.8972 19.9248 15.0422 19.9248 15.1905C19.9248 15.289 19.9054 15.3866 19.8677 15.4776C19.83 15.5686 19.7748 15.6512 19.7051 15.7209C19.6355 15.7905 19.5528 15.8458 19.4618 15.8835C19.3708 15.9211 19.2733 15.9405 19.1748 15.9405Z" fill="#4D4D4D"/>
</svg>
