<svg width="23" height="26" viewBox="0 0 23 26" fill="none" xmlns="http://www.w3.org/2000/svg">
<path d="M7.17031 25.3793V15.7845C6.69323 15.7159 6.24926 15.6805 5.81897 15.5846C4.44103 15.2853 3.20749 14.5217 2.32458 13.4215C1.44166 12.3212 0.962896 10.951 0.968307 9.53985C0.968307 7.59233 0.968307 5.64481 0.968307 3.69614V3.37974H4.07273V3.79666C4.07273 5.64785 4.07273 7.49904 4.07273 9.35024C4.04399 9.79064 4.10954 10.2321 4.265 10.6451C4.42045 11.0581 4.66223 11.4331 4.97417 11.7451C5.2861 12.0571 5.661 12.2988 6.07378 12.4541C6.48657 12.6094 6.92773 12.6747 7.36776 12.6456H11.1832C12.9101 12.6456 14.6358 12.6456 16.3638 12.6456C17.8485 12.6164 19.2935 13.1266 20.4313 14.0817C21.569 15.0368 22.3225 16.3722 22.5521 17.8405C22.6097 18.1744 22.6388 18.5126 22.6388 18.8514C22.6457 20.8103 22.6388 22.7716 22.6388 24.7305C22.6388 24.8139 22.6285 24.8961 22.6217 25.0035H19.5401V24.6083C19.5401 22.6722 19.5526 20.7361 19.5401 18.8011C19.5347 18.0302 19.2402 17.2894 18.7149 16.7254C18.1896 16.1615 17.4719 15.8155 16.7039 15.7559C16.6342 15.7559 16.5635 15.7559 16.4391 15.7559V25.3793H7.17031ZM11.5713 9.53871C10.4331 9.48279 9.35512 9.00999 8.54262 8.21029C7.73011 7.41059 7.23977 6.33983 7.16492 5.20179C7.09007 4.06375 7.43593 2.9379 8.13669 2.03851C8.83745 1.13912 9.84417 0.528993 10.9652 0.324246C11.0448 0.304631 11.1229 0.27983 11.1992 0.25L12.36 0.25C12.8829 0.384738 13.3958 0.555725 13.895 0.761724C14.8283 1.23387 15.5746 2.00789 16.0128 2.95808C16.451 3.90828 16.5554 4.97884 16.309 5.99589C16.0626 7.01294 15.4798 7.91675 14.6554 8.56052C13.831 9.2043 12.8133 9.55023 11.7676 9.54213C11.6968 9.54213 11.6363 9.54099 11.5713 9.53871Z" fill="#282F39"/>
</svg>
